<svg width="301" height="150" viewBox="0 0 301 150" fill="none" xmlns="http://www.w3.org/2000/svg">
<path d="M43.9423 97H35.6854L20.7168 74.1798C19.8388 72.8459 19.2309 71.8412 18.8932 71.1658H18.7919C18.927 72.4491 18.9945 74.4078 18.9945 77.0418V97H11.2696V60.6802H20.0836L34.4951 82.7912C35.1536 83.7874 35.7614 84.7752 36.3186 85.7545H36.42C36.2849 84.9103 36.2173 83.2471 36.2173 80.765V60.6802H43.9423V97ZM74.766 86.3117H57.8471C58.1173 90.0771 60.4896 91.9598 64.9642 91.9598C67.8178 91.9598 70.3252 91.2844 72.4865 89.9336V95.7083C70.0888 96.9916 66.9735 97.6332 63.1406 97.6332C58.9531 97.6332 55.7027 96.4766 53.3895 94.1633C51.0762 91.8332 49.9196 88.5912 49.9196 84.4375C49.9196 80.1318 51.1691 76.721 53.6681 74.2051C56.1671 71.6893 59.2401 70.4313 62.8873 70.4313C66.6696 70.4313 69.5907 71.5542 71.6507 73.7999C73.7275 76.0456 74.766 79.0934 74.766 82.9432V86.3117ZM67.345 81.3982C67.345 77.6835 65.8422 75.8261 62.8367 75.8261C61.5534 75.8261 60.439 76.358 59.4934 77.4217C58.5647 78.4855 57.9991 79.811 57.7965 81.3982H67.345ZM96.4464 78.2829C95.484 77.7594 94.3611 77.4977 93.0778 77.4977C91.3387 77.4977 89.9794 78.1394 89.0001 79.4226C88.0208 80.689 87.5311 82.4197 87.5311 84.6148V97H79.5276V71.0645H87.5311V75.8768H87.6324C88.8988 72.3647 91.1783 70.6086 94.4709 70.6086C95.3151 70.6086 95.9736 70.7099 96.4464 70.9125V78.2829ZM125.371 97H117.367V93.4288H117.266C115.442 96.2317 112.766 97.6332 109.237 97.6332C105.995 97.6332 103.386 96.4934 101.411 94.214C99.4351 91.9176 98.4473 88.7179 98.4473 84.6148C98.4473 80.326 99.5364 76.8899 101.715 74.3064C103.893 71.723 106.746 70.4313 110.275 70.4313C113.619 70.4313 115.949 71.6302 117.266 74.0278H117.367V58.6033H125.371V97ZM117.519 84.3868V82.4366C117.519 80.7481 117.029 79.3466 116.05 78.2322C115.071 77.1178 113.796 76.5606 112.226 76.5606C110.453 76.5606 109.068 77.2613 108.072 78.6628C107.076 80.0474 106.577 81.9554 106.577 84.3868C106.577 86.6663 107.059 88.4224 108.021 89.655C108.984 90.8876 110.318 91.5039 112.023 91.5039C113.644 91.5039 114.961 90.8538 115.974 89.5537C117.004 88.2535 117.519 86.5312 117.519 84.3868ZM149.027 64.7326C147.997 64.3274 147.009 64.1247 146.063 64.1247C143.497 64.1247 142.213 65.5178 142.213 68.3038V71.0645H148.14V76.9659H142.213V97H134.235V76.9659H129.879V71.0645H134.235V67.8479C134.235 64.893 135.198 62.5122 137.123 60.7055C139.047 58.8988 141.665 57.9955 144.974 57.9955C146.595 57.9955 147.946 58.1643 149.027 58.502V64.7326ZM164.375 97.6332C160.053 97.6332 156.65 96.4259 154.168 94.0113C151.703 91.5799 150.47 88.2873 150.47 84.1336C150.47 79.8448 151.754 76.4931 154.32 74.0785C156.887 71.647 160.356 70.4313 164.73 70.4313C169.035 70.4313 172.412 71.647 174.861 74.0785C177.309 76.4931 178.533 79.6928 178.533 83.6777C178.533 87.9834 177.267 91.3857 174.734 93.8847C172.218 96.3837 168.765 97.6332 164.375 97.6332ZM164.578 76.5606C162.687 76.5606 161.218 77.2107 160.171 78.5108C159.124 79.811 158.6 81.6515 158.6 84.0323C158.6 89.0134 160.61 91.5039 164.628 91.5039C168.461 91.5039 170.378 88.9458 170.378 83.8296C170.378 78.9836 168.444 76.5606 164.578 76.5606ZM200.644 78.2829C199.682 77.7594 198.559 77.4977 197.276 77.4977C195.537 77.4977 194.177 78.1394 193.198 79.4226C192.219 80.689 191.729 82.4197 191.729 84.6148V97H183.725V71.0645H191.729V75.8768H191.83C193.097 72.3647 195.376 70.6086 198.669 70.6086C199.513 70.6086 200.171 70.7099 200.644 70.9125V78.2829ZM203 96.3162V89.8323C204.317 90.6259 205.625 91.2169 206.926 91.6052C208.243 91.9936 209.484 92.1878 210.649 92.1878C212.067 92.1878 213.181 91.9936 213.992 91.6052C214.819 91.2169 215.233 90.6259 215.233 89.8323C215.233 89.3257 215.047 88.9036 214.676 88.5659C214.304 88.2282 213.823 87.9327 213.232 87.6794C212.658 87.4262 212.025 87.1982 211.333 86.9956C210.64 86.793 209.973 86.565 209.332 86.3117C208.302 85.9234 207.39 85.5097 206.596 85.0707C205.82 84.6148 205.161 84.0914 204.621 83.5004C204.097 82.9094 203.692 82.2256 203.405 81.4488C203.135 80.6721 203 79.7519 203 78.6881C203 77.236 203.312 75.9865 203.937 74.9396C204.578 73.8928 205.423 73.0401 206.47 72.3816C207.533 71.7061 208.741 71.2165 210.091 70.9125C211.459 70.5917 212.878 70.4313 214.347 70.4313C215.495 70.4313 216.66 70.5242 217.842 70.7099C219.024 70.8788 220.189 71.1321 221.337 71.4698V77.6497C220.324 77.0587 219.235 76.6197 218.07 76.3327C216.921 76.0287 215.79 75.8768 214.676 75.8768C214.152 75.8768 213.654 75.9274 213.181 76.0287C212.726 76.1132 212.32 76.2482 211.966 76.434C211.611 76.6028 211.333 76.8308 211.13 77.1178C210.927 77.388 210.826 77.7004 210.826 78.0549C210.826 78.5277 210.978 78.933 211.282 79.2707C211.586 79.6084 211.983 79.9039 212.472 80.1571C212.962 80.3935 213.502 80.613 214.093 80.8156C214.701 81.0014 215.301 81.1956 215.891 81.3982C216.955 81.7697 217.918 82.1749 218.779 82.6139C219.64 83.0529 220.374 83.5679 220.982 84.1589C221.607 84.7499 222.08 85.4422 222.401 86.2358C222.738 87.0294 222.907 87.9749 222.907 89.0725C222.907 90.609 222.57 91.926 221.894 93.0236C221.236 94.1042 220.349 94.9907 219.235 95.683C218.137 96.3584 216.862 96.848 215.41 97.152C213.975 97.4728 212.481 97.6332 210.927 97.6332C208.074 97.6332 205.431 97.1942 203 96.3162ZM247.196 96.0629C245.39 97.1098 242.781 97.6332 239.37 97.6332C235.385 97.6332 232.16 96.4259 229.695 94.0113C227.23 91.5968 225.997 88.4815 225.997 84.6654C225.997 80.2584 227.314 76.7886 229.948 74.2558C232.599 71.7061 236.137 70.4313 240.561 70.4313C243.617 70.4313 245.829 70.8366 247.196 71.647V78.4349C245.525 77.1854 243.659 76.5606 241.599 76.5606C239.303 76.5606 237.479 77.236 236.128 78.5868C234.794 79.9207 234.127 81.7697 234.127 84.1336C234.127 86.4299 234.769 88.2366 236.052 89.5537C237.336 90.8538 239.1 91.5039 241.346 91.5039C243.338 91.5039 245.288 90.8792 247.196 89.6297V96.0629ZM277.362 97H269.383V82.2593C269.383 78.4602 267.999 76.5606 265.23 76.5606C263.811 76.5606 262.663 77.0925 261.785 78.1562C260.907 79.22 260.468 80.5708 260.468 82.2087V97H252.465V58.6033H260.468V74.9143H260.569C262.528 71.9257 265.187 70.4313 268.548 70.4313C274.424 70.4313 277.362 73.9772 277.362 81.0689V97ZM287.29 97.6332C285.973 97.6332 284.875 97.2279 283.997 96.4175C283.119 95.607 282.68 94.6108 282.68 93.4288C282.68 92.2131 283.128 91.2169 284.023 90.4401C284.935 89.6634 286.066 89.2751 287.417 89.2751C288.784 89.2751 289.899 89.6719 290.76 90.4655C291.638 91.2422 292.077 92.23 292.077 93.4288C292.077 94.6614 291.63 95.6745 290.735 96.4681C289.857 97.2448 288.708 97.6332 287.29 97.6332Z" fill="#020817"/>
</svg>
