<svg width="11" height="20" viewBox="0 0 11 20" fill="none" xmlns="http://www.w3.org/2000/svg">
<path d="M7.06861 10.0011L0.425398 2.56689C0.152876 2.28401 0 1.90202 0 1.50393C0 1.10585 0.152876 0.723851 0.425398 0.440972C0.559221 0.30131 0.718735 0.190397 0.894657 0.114692C1.07058 0.0389867 1.25939 0 1.45011 0C1.64083 0 1.82965 0.0389867 2.00557 0.114692C2.18149 0.190397 2.34101 0.30131 2.47483 0.440972L10.5753 8.93595C10.8474 9.21948 11 9.60173 11 10C11 10.3983 10.8474 10.7805 10.5753 11.064L2.47483 19.559C2.34101 19.6987 2.18149 19.8096 2.00557 19.8853C1.82965 19.961 1.64083 20 1.45011 20C1.25939 20 1.07058 19.961 0.894657 19.8853C0.718735 19.8096 0.559221 19.6987 0.425398 19.559C0.152876 19.2762 0 18.8942 0 18.4961C0 18.098 0.152876 17.716 0.425398 17.4331L7.06861 10.0011Z" fill="white"/>
</svg>
