<svg width="21" height="20" viewBox="0 0 21 20" fill="none" xmlns="http://www.w3.org/2000/svg">
<g clip-path="url(#clip0_340_2515)">
<mask id="mask0_340_2515" style="mask-type:luminance" maskUnits="userSpaceOnUse" x="1" y="0" width="20" height="20">
<path d="M1.25 19.0898L20.25 19.0898L20.25 0.0898438L1.25 0.0898438L1.25 19.0898Z" fill="white"/>
</mask>
<g mask="url(#mask0_340_2515)">
<path d="M15.5003 9.5514V6.87587C15.5003 4.97568 15.5003 4.02559 15.1305 3.29981C14.8052 2.6614 14.2862 2.14236 13.6478 1.81707C12.922 1.44727 11.9719 1.44727 10.0717 1.44727H7.81261C6.12284 1.44727 5.27795 1.44727 4.61826 1.7415C3.85392 2.0824 3.24255 2.69378 2.90165 3.45812C2.60742 4.1178 2.60742 4.96269 2.60742 6.65247V8.91156C2.60742 10.8117 2.60742 11.7618 2.97722 12.4876C3.30251 13.126 3.82155 13.645 4.45995 13.9703C5.18573 14.3401 6.13582 14.3401 8.03599 14.3401H10.7115C12.0108 14.3401 12.6604 14.3401 13.1848 14.1645C14.1943 13.8265 14.9866 13.0341 15.3247 12.0246C15.5003 11.5002 15.5003 10.8506 15.5003 9.5514Z" stroke="#99A2AF" stroke-width="1.49286" stroke-linecap="round" stroke-linejoin="round"/>
<path d="M18.2142 6.19727C18.6403 6.76439 18.8928 7.46937 18.8928 8.23333V12.9446C18.8928 13.6109 18.8928 13.9441 18.8538 14.2235C18.6028 16.0263 17.1857 17.4434 15.3829 17.6945C15.1035 17.7334 14.7703 17.7334 14.104 17.7334H9.84375C8.96639 17.7334 8.15768 17.4394 7.51074 16.9446" stroke="#99A2AF" stroke-width="1.49286" stroke-linecap="round" stroke-linejoin="round"/>
</g>
</g>
<defs>
<clipPath id="clip0_340_2515">
<rect width="20" height="19" fill="white" transform="translate(0.75 0.0898438)"/>
</clipPath>
</defs>
</svg>
