<svg width="20" height="19" viewBox="0 0 20 19" fill="none" xmlns="http://www.w3.org/2000/svg">
<path d="M10.0005 2.03223H7.9647C6.06453 2.03224 5.11444 2.03224 4.38866 2.40203C3.75026 2.72732 3.23122 3.24636 2.90593 3.88477C2.53613 4.61054 2.53613 5.56063 2.53613 7.46081V11.5322C2.53613 13.4324 2.53613 14.3824 2.90593 15.1082C3.23122 15.7466 3.75026 16.2657 4.38867 16.5909C5.11444 16.9607 6.06453 16.9607 7.96471 16.9607H10.0005M10.0005 2.03223H12.0362C13.9363 2.03223 14.8864 2.03223 15.6122 2.40203C16.2506 2.72732 16.7697 3.24636 17.0949 3.88477C17.4647 4.61054 17.4647 5.56063 17.4647 7.4608V11.5322C17.4647 13.4323 17.4647 14.3824 17.0949 15.1082C16.7697 15.7466 16.2506 16.2657 15.6122 16.5909C14.8864 16.9607 13.9364 16.9607 12.0362 16.9607H10.0005M10.0005 2.03223V16.9607" stroke="#99A2AF" stroke-width="1.49286" stroke-linecap="round" stroke-linejoin="round"/>
<path d="M10.0004 11.3623H2.53613" stroke="#99A2AF" stroke-width="1.49286" stroke-linecap="round" stroke-linejoin="round"/>
<path d="M17.4652 7.62988H10.001" stroke="#99A2AF" stroke-width="1.49286" stroke-linecap="round" stroke-linejoin="round"/>
</svg>
