<svg width="25" height="18" viewBox="0 0 25 18" fill="none" xmlns="http://www.w3.org/2000/svg">
<path d="M14.0625 1.8125C14.0625 1.3981 13.8979 1.00067 13.6049 0.707646C13.3118 0.41462 12.9144 0.25 12.5 0.25C12.0856 0.25 11.6882 0.41462 11.3951 0.707646C11.1021 1.00067 10.9375 1.3981 10.9375 1.8125C10.9375 2.2269 11.1021 2.62433 11.3951 2.91735C11.6882 3.21038 12.0856 3.375 12.5 3.375C12.9144 3.375 13.3118 3.21038 13.6049 2.91735C13.8979 2.62433 14.0625 2.2269 14.0625 1.8125ZM5.625 7.125C6.0394 7.125 6.43683 6.96038 6.72985 6.66735C7.02288 6.37433 7.1875 5.9769 7.1875 5.5625C7.1875 5.1481 7.02288 4.75067 6.72985 4.45765C6.43683 4.16462 6.0394 4 5.625 4C5.2106 4 4.81317 4.16462 4.52015 4.45765C4.22712 4.75067 4.0625 5.1481 4.0625 5.5625C4.0625 5.9769 4.22712 6.37433 4.52015 6.66735C4.81317 6.96038 5.2106 7.125 5.625 7.125ZM1.25 15.25C0.558594 15.25 0 15.8086 0 16.5C0 17.1914 0.558594 17.75 1.25 17.75H23.75C24.4414 17.75 25 17.1914 25 16.5C25 15.8086 24.4414 15.25 23.75 15.25H1.25ZM19.375 7.125C19.7894 7.125 20.1868 6.96038 20.4799 6.66735C20.7729 6.37433 20.9375 5.9769 20.9375 5.5625C20.9375 5.1481 20.7729 4.75067 20.4799 4.45765C20.1868 4.16462 19.7894 4 19.375 4C18.9606 4 18.5632 4.16462 18.2701 4.45765C17.9771 4.75067 17.8125 5.1481 17.8125 5.5625C17.8125 5.9769 17.9771 6.37433 18.2701 6.66735C18.5632 6.96038 18.9606 7.125 19.375 7.125ZM7.8125 11.2461L8.86328 13.1953C9.10938 13.6523 9.67578 13.8203 10.1328 13.5781C10.5898 13.3359 10.7578 12.7656 10.5156 12.3086L9.09766 9.67188C9.16406 9.60547 9.22266 9.53125 9.26562 9.44531L10.3125 7.49609V9.625C10.3125 10.3164 10.8711 10.875 11.5625 10.875H13.4375C14.1289 10.875 14.6875 10.3164 14.6875 9.625V7.49609L15.7383 9.44531C15.7852 9.53125 15.8398 9.60547 15.9062 9.67188L14.4883 12.3086C14.2422 12.7656 14.4141 13.332 14.8711 13.5781C15.3281 13.8242 15.8945 13.6523 16.1406 13.1953L17.1875 11.2461V12.75C17.1875 13.4414 17.7461 14 18.4375 14H20.3125C21.0039 14 21.5625 13.4414 21.5625 12.75V11.2461L22.6133 13.1953C22.8594 13.6523 23.4258 13.8203 23.8828 13.5781C24.3398 13.3359 24.5078 12.7656 24.2656 12.3086L22.7852 9.5625C22.1875 8.44922 21.0234 7.75391 19.7578 7.75391H18.9961C18.3594 7.75391 17.75 7.92969 17.2227 8.24609L15.9102 5.8125C15.3125 4.69922 14.1484 4.00391 12.8828 4.00391H12.1211C10.8555 4.00391 9.69531 4.69922 9.09375 5.8125L7.78125 8.24609C7.25391 7.92969 6.64453 7.75391 6.00781 7.75391H5.24609C3.98047 7.75391 2.82031 8.44922 2.21875 9.5625L0.738281 12.3047C0.492187 12.7617 0.664063 13.3281 1.12109 13.5742C1.57812 13.8203 2.14453 13.6484 2.39062 13.1914L3.4375 11.2461V12.75C3.4375 13.4414 3.99609 14 4.6875 14H6.5625C7.25391 14 7.8125 13.4414 7.8125 12.75V11.2461Z" fill="black"/>
</svg>
