<svg width="21" height="27" viewBox="0 0 21 27" fill="none" xmlns="http://www.w3.org/2000/svg">
<path d="M13.6681 12.8954C13.4173 12.8954 13.1666 12.7455 13.0203 12.4831L9.67668 6.51146C9.56174 6.29908 9.51994 6.04922 9.56174 5.81185C9.60353 5.57449 9.71847 5.3496 9.8961 5.21217L15.8101 0.477292C16.2699 0.1025 16.8237 -0.0224152 17.367 0.102515C17.9103 0.227446 18.3805 0.602233 18.694 1.15193L20.5957 4.53754C21.233 5.67441 20.9823 7.22356 20.021 7.98564L14.1174 12.7205C13.9711 12.8454 13.8248 12.8954 13.6681 12.8954ZM11.4216 6.24912L13.8875 10.6592L19.1433 6.44897C19.3836 6.26158 19.4463 5.8743 19.2791 5.59946L17.3774 2.21385C17.3043 2.07642 17.1894 1.98898 17.0535 1.9515C16.9177 1.91402 16.7819 1.95147 16.6669 2.03893L11.4216 6.24912Z" fill="white"/>
<path d="M8.34989 16.2934C8.09911 16.2934 7.84834 16.1435 7.70205 15.8812L5.02715 11.1088C4.78682 10.684 4.88086 10.0968 5.24657 9.80945L10.2411 5.81165C10.4188 5.67423 10.6277 5.62424 10.8263 5.67421C11.0352 5.72418 11.2129 5.86162 11.3278 6.074L14.0027 10.8464C14.243 11.2712 14.149 11.8584 13.7833 12.1457L8.78874 16.1435C8.6529 16.2435 8.49617 16.2934 8.34989 16.2934ZM6.76166 10.8464L8.55886 14.0572L12.2473 11.1088L10.4501 7.88553L6.76166 10.8464Z" fill="white"/>
<path d="M3.48013 19.5168C2.895 19.5168 2.30987 19.1794 1.95461 18.5423L0.773897 16.4434C0.502228 15.9562 0.408187 15.3815 0.502226 14.8068C0.596265 14.2322 0.867932 13.7449 1.27544 13.4201L5.40271 10.1219C5.75797 9.83459 6.24907 9.94706 6.48939 10.3843L8.82992 14.557C9.07024 14.9818 8.9762 15.5689 8.6105 15.8563L4.48322 19.1544C4.1802 19.3918 3.82494 19.5168 3.48013 19.5168ZM5.62214 12.1833L2.15314 14.9568C2.0382 15.0567 1.99641 15.2441 2.08 15.394L3.26071 17.4929C3.3443 17.6303 3.50103 17.6802 3.62641 17.5803L7.09542 14.8068L5.62214 12.1833Z" fill="white"/>
<path d="M5.86328 26.9249C5.7588 26.9249 5.64386 26.9 5.53937 26.8375C5.14232 26.6251 4.97513 26.0629 5.15276 25.6007L9.84429 13.3574C10.0219 12.8827 10.4921 12.6827 10.8787 12.8951C11.2758 13.1075 11.443 13.6697 11.2653 14.132L6.5738 26.3752C6.43797 26.7251 6.15585 26.9249 5.86328 26.9249Z" fill="white"/>
<path d="M15.1415 26.9249C14.8385 26.9249 14.5564 26.725 14.431 26.3752L9.79175 14.132C9.61412 13.6572 9.79175 13.1075 10.1784 12.8951C10.565 12.6827 11.0352 12.8951 11.2128 13.3574L15.8521 25.6007C16.0297 26.0754 15.8521 26.6251 15.4654 26.8375C15.361 26.8999 15.2565 26.9249 15.1415 26.9249Z" fill="white"/>
</svg>
