<svg width="22" height="21" viewBox="0 0 22 21" fill="none" xmlns="http://www.w3.org/2000/svg">
<g clip-path="url(#clip0_59_1077)">
<path fill-rule="evenodd" clip-rule="evenodd" d="M5.56999 5.98404C4.86823 6.6858 4.31602 7.50549 3.93062 8.42008C3.53276 9.36535 3.33048 10.372 3.33048 11.4131H1.41309C1.41309 10.1151 1.66618 8.85725 2.1647 7.67517C2.64693 6.53145 3.33623 5.50565 4.21439 4.62844C5.09639 3.7474 6.1222 3.05714 7.26305 2.57779C9.57542 1.6028 12.2521 1.58842 14.5827 2.52123C15.0151 2.09077 15.6124 1.82617 16.2729 1.82617C17.6016 1.82617 18.6696 2.89416 18.6696 4.22291C18.6696 5.55166 17.6016 6.61965 16.2729 6.61965C14.9729 6.61965 13.9289 5.5948 13.8838 4.30536C12.0153 3.55182 9.86203 3.56237 8.00699 4.34467C7.09528 4.72718 6.27559 5.27939 5.56999 5.98404ZM16.4291 16.8422C17.1319 16.1395 17.6841 15.3189 18.0685 14.4062C18.4674 13.4599 18.6696 12.4533 18.6696 11.4131H20.587C20.587 12.7112 20.3339 13.968 19.8364 15.1501C19.3541 16.2929 18.6639 17.3187 17.7848 18.1979C16.9056 19.0769 15.8788 19.7672 14.736 20.2495C13.5549 20.747 12.2981 21.0001 11 21.0001C9.75858 21.0001 8.55537 20.7623 7.4174 20.3051C6.98502 20.7355 6.38776 21.0001 5.72722 21.0001C4.39846 21.0001 3.33048 19.9321 3.33048 18.6033C3.33048 17.2746 4.39846 16.2066 5.72722 16.2066C7.02721 16.2066 8.07123 17.2314 8.11533 18.5209C9.98291 19.2744 12.1361 19.2638 13.9922 18.4815C14.9058 18.0972 15.7264 17.5449 16.4291 16.8422ZM7.23374 11.4131C7.23374 9.33659 8.92351 7.64682 11 7.64682C13.0766 7.64682 14.7663 9.33659 14.7663 11.4131C14.7663 13.4897 13.0766 15.1794 11 15.1794C8.92351 15.1794 7.23374 13.4897 7.23374 11.4131Z" fill="#070707"/>
</g>
<defs>
<clipPath id="clip0_59_1077">
<rect width="21" height="21" fill="white" transform="translate(0.5)"/>
</clipPath>
</defs>
</svg>
